<svg xmlns="http://www.w3.org/2000/svg" viewBox="0 0 24 24" fill="currentColor">
  <path d="M12 2C6.48 2 2 6.48 2 12c0 4.42 2.87 8.17 6.84 9.5.5.09.66-0.25.66-0.56 0-.28-.01-1.02-.01-1.86-2.78.6-3.37-1.34-3.37-1.34-.45-1.15-1.11-1.45-1.11-1.45-.91-.62.07-.61.07-.61 1 .07 1.53 1.03 1.53 1.03.88 1.53 2.34 1.09 2.91.83.09-.65.35-1.09.63-1.34-2.22-.25-4.56-1.11-4.56-4.95 0-1.1.4-2 1.06-2.7A4.65 4.65 0 0112.01 6.8c.45-.99 1.2-1.7 2.16-2-.05 1.23-.37 2.18-.98 2.92.11.11.21.29.21.58 0 .41-.01.78-.03 1.15.54.14.98.56 1.33.92.42-.45.96-1.02 1.6-1.31-.55.14-1.12.2-1.7.2-.55 0-1.09-.09-1.6-.25 1.18-.66 2.01-1.12 2.83-1.12 1.12 0 2 .56 2 1.12 0 .82-.85 1.28-2.01 1.94.5.1.96.72 1.38.92.02-.76.03-1.53.03-2.3 0-.77-.03-1.54-.08-2.31 0 0 .68-.21 2.2.94a8.44 8.44 0 014 0c1.52-.65 2.2-.94 2.2-.94.05.77.08 1.54.08 2.31 0 .76-.01 1.53-.03 2.31-.21.77-.66 1.5-1.12 2.12.56.35 1.08.35 1.7 0 .42-.2.77-.56 1.02-.92.61.78.61 1.06.42 1.06-1.03 0-.61-1-.61-1.53-1.03-1.02.82-1.34.83-1.02.62-1.86.02-.56-.01-1.02-.01-1.59 0-.31.06-.56.16-.77C14.87 4.17 18 4.42 18 8c0 3.85-2.34 4.95-4.56 5 1.12.58 1.72 1.67 1.72 2.95 0 2.14-1.71 3.74-4 3.74-2.29 0-4-1.6-4-3.74 0-1.28.6-2.37 1.72-2.95C6.34 12.17 4 11.07 4 8c0-2.93 2.34-5 5-5 .82 0 1.6.16 2.31.45.42-.25.88-.37 1.33-.37.45 0 .81.12 1.23.31-.71-.24-1.48-.36-2.31-.36z"/>
</svg>